<svg width="22" height="19" viewBox="0 0 22 19" fill="none" xmlns="http://www.w3.org/2000/svg">
<path d="M20.5268 3.83196C19.5447 2.64898 18.2106 1.71446 16.5246 1.02866C14.8387 0.342858 12.9971 0 11 0C9.003 0 7.16143 0.342858 5.47544 1.02866C3.78944 1.71446 2.4554 2.64881 1.47323 3.83196C0.49102 5.01502 0 6.30432 0 7.69998C0 8.90306 0.370232 10.0303 1.111 11.081C1.85176 12.1318 2.86446 13.0142 4.14957 13.728C4.05944 14.0488 3.95306 14.3535 3.83025 14.6425C3.70748 14.9312 3.59701 15.1679 3.4988 15.3524C3.4005 15.5368 3.26763 15.7414 3.09972 15.9658C2.93206 16.1905 2.80521 16.349 2.71925 16.4413C2.63338 16.5336 2.49221 16.6857 2.29565 16.8984C2.09936 17.1108 1.97242 17.2494 1.91519 17.3136C1.90689 17.3177 1.87421 17.3536 1.81693 17.4221C1.7597 17.4902 1.73097 17.524 1.73097 17.524L1.65732 17.6323C1.61634 17.6922 1.59793 17.7304 1.60197 17.7462C1.6061 17.7624 1.59793 17.8025 1.57746 17.8665C1.55695 17.9308 1.55906 17.979 1.58357 18.011V18.0231C1.61634 18.1594 1.68174 18.2698 1.77995 18.354C1.87816 18.4379 1.98885 18.48 2.11148 18.48H2.17293C2.70506 18.4157 3.17153 18.3277 3.5725 18.2154C5.71693 17.6781 7.59943 16.7075 9.2199 15.3037C9.83368 15.3679 10.4271 15.3999 10.9999 15.3999C12.997 15.3999 14.8386 15.0571 16.5246 14.3711C18.2105 13.6852 19.5446 12.751 20.5267 11.568C21.5089 10.385 22 9.0956 22 7.69994C22 6.30449 21.509 5.01502 20.5268 3.83196ZM19.1456 10.7681C18.2901 11.7144 17.1361 12.4665 15.6833 13.0239C14.2306 13.5811 12.6693 13.86 10.9997 13.86C10.5005 13.86 9.96857 13.828 9.40385 13.7637L8.70407 13.6917L8.17615 14.149C7.1696 15.0153 6.04411 15.701 4.80007 16.2064C5.1765 15.5568 5.46297 14.8669 5.65948 14.1372L5.99092 12.982L4.92288 12.3807C3.85889 11.7868 3.0344 11.083 2.44908 10.2688C1.86385 9.45485 1.57136 8.59843 1.57136 7.70015C1.57136 6.60124 1.999 5.57865 2.85423 4.63217C3.70972 3.68577 4.86359 2.93376 6.31639 2.37632C7.7692 1.81884 9.33024 1.53987 11 1.53987C12.6696 1.53987 14.2306 1.81872 15.6833 2.37616C17.136 2.93364 18.29 3.6856 19.1456 4.632C20.0008 5.57848 20.4284 6.60112 20.4284 7.69994C20.4284 8.79877 20.0008 9.82161 19.1456 10.7681Z" fill="#838487"/>
</svg>
