<svg width="24" height="24" viewBox="0 0 24 24" fill="none" xmlns="http://www.w3.org/2000/svg">
<path d="M18.3511 8.55464C17.6964 7.76598 16.807 7.14297 15.6831 6.68577C14.5591 6.22857 13.3313 6 12 6C10.6686 6 9.44091 6.22857 8.31692 6.68577C7.19292 7.14297 6.30356 7.76587 5.64878 8.55464C4.99397 9.34335 4.66663 10.2029 4.66663 11.1333C4.66663 11.9354 4.91345 12.6869 5.40729 13.3874C5.90113 14.0878 6.57627 14.6761 7.433 15.152C7.37292 15.3658 7.302 15.569 7.22012 15.7617C7.13828 15.9541 7.06464 16.1119 6.99916 16.235C6.93363 16.3578 6.84505 16.4943 6.7331 16.6439C6.62133 16.7937 6.53676 16.8993 6.47946 16.9608C6.42221 17.0224 6.3281 17.1238 6.19706 17.2656C6.0662 17.4072 5.98157 17.4996 5.94342 17.5424C5.93789 17.5451 5.9161 17.5691 5.87791 17.6147C5.83976 17.6601 5.82061 17.6827 5.82061 17.6827L5.7715 17.7549C5.74418 17.7948 5.73191 17.8203 5.73461 17.8308C5.73736 17.8416 5.73191 17.8683 5.71827 17.911C5.70459 17.9539 5.706 17.986 5.72234 18.0073V18.0154C5.74418 18.1063 5.78779 18.1798 5.85326 18.236C5.91874 18.2919 5.99252 18.32 6.07428 18.32H6.11525C6.47 18.2771 6.78098 18.2185 7.0483 18.1436C8.47791 17.7854 9.73291 17.1383 10.8132 16.2025C11.2224 16.2453 11.618 16.2666 11.9999 16.2666C13.3313 16.2666 14.559 16.0381 15.683 15.5807C16.807 15.1235 17.6964 14.5007 18.3511 13.712C19.0059 12.9234 19.3333 12.0637 19.3333 11.1333C19.3333 10.203 19.006 9.34335 18.3511 8.55464ZM17.4304 13.1787C16.86 13.8096 16.0907 14.311 15.1222 14.6826C14.1537 15.0541 13.1128 15.24 11.9998 15.24C11.667 15.24 11.3123 15.2187 10.9359 15.1758L10.4693 15.1278L10.1174 15.4327C9.44636 16.0102 8.69604 16.4673 7.86668 16.8042C8.11762 16.3712 8.3086 15.9113 8.43961 15.4248L8.66057 14.6547L7.94855 14.2538C7.23922 13.8578 6.68956 13.3887 6.29935 12.8459C5.90919 12.3032 5.7142 11.7323 5.7142 11.1334C5.7142 10.4008 5.99929 9.7191 6.56944 9.08811C7.13977 8.45718 7.90902 7.95584 8.87755 7.58422C9.84609 7.21256 10.8868 7.02658 11.9999 7.02658C13.113 7.02658 14.1537 7.21248 15.1222 7.5841C16.0906 7.95576 16.8599 8.45707 17.4303 9.088C18.0005 9.71899 18.2856 10.4007 18.2856 11.1333C18.2856 11.8658 18.0005 12.5477 17.4304 13.1787Z" fill="#838487"/>
</svg>
