<svg width="17" height="20" viewBox="0 0 17 20" fill="none" xmlns="http://www.w3.org/2000/svg">
<path d="M16.2753 16.5324L14.8731 14.195C14.2254 13.1161 13.8832 11.8805 13.8832 10.6228V8.57529C13.8832 5.99045 12.1584 3.80418 9.79975 3.09936V1.6334C9.79975 0.732575 9.06718 0 8.16635 0C7.26552 0 6.53295 0.732575 6.53295 1.6334V3.09936C4.17436 3.80418 2.4495 5.99045 2.4495 8.57529V10.6228C2.4495 11.8805 2.10729 13.1153 1.46047 14.1942L0.0582213 16.5316C-0.0177313 16.6582 -0.0193774 16.815 0.0533212 16.9432C0.12602 17.0714 0.260774 17.1506 0.407779 17.1506H15.925C16.072 17.1506 16.2075 17.0714 16.2802 16.944C16.3529 16.8166 16.3505 16.6581 16.2753 16.5324Z" fill="#568CD6"/>
<path d="M5.59424 17.9692C6.05485 18.9313 7.02999 19.6026 8.16598 19.6026C9.30198 19.6026 10.2772 18.9313 10.7378 17.9692H5.59424Z" fill="#568CD6"/>
</svg>
