<svg width="22" height="27" viewBox="0 0 22 27" fill="none" xmlns="http://www.w3.org/2000/svg">
<path d="M21.589 21.9299L19.7289 18.8294C18.8698 17.3984 18.4159 15.7592 18.4159 14.0909V11.375C18.4159 7.94625 16.1279 5.04618 12.9992 4.11125V2.16668C12.9992 0.97175 12.0275 0 10.8325 0C9.63761 0 8.66586 0.97175 8.66586 2.16668V4.11125C5.53723 5.04618 3.24923 7.94625 3.24923 11.375V14.0909C3.24923 15.7592 2.7953 17.3972 1.9373 18.8284L0.0772296 21.9289C-0.0235203 22.0968 -0.0257039 22.3048 0.0707297 22.4749C0.167163 22.6449 0.345913 22.7501 0.540913 22.7501H21.1242C21.3192 22.7501 21.499 22.645 21.5955 22.476C21.6919 22.3069 21.6887 22.0968 21.589 21.9299Z" fill="#568CD6"/>
<path d="M7.4209 23.8359C8.0319 25.1121 9.3254 26.0026 10.8323 26.0026C12.3392 26.0026 13.6327 25.1121 14.2437 23.8359H7.4209Z" fill="#568CD6"/>
</svg>
