<svg width="20" height="17" viewBox="0 0 20 17" fill="none" xmlns="http://www.w3.org/2000/svg">
<path d="M16.8602 7.74097L6.20555 7.74097C5.69766 7.74097 5.28591 8.15554 5.28591 8.66689C5.28591 9.17825 5.69766 9.59281 6.20555 9.59281L16.8602 9.59281L15.6712 10.79C15.312 11.1516 15.312 11.7378 15.6712 12.0994C16.0303 12.461 16.6126 12.461 16.9717 12.0994L19.7305 9.3217C19.7521 9.30004 19.7724 9.27732 19.7917 9.25362C19.8001 9.24331 19.8074 9.23238 19.8153 9.22183C19.8254 9.20825 19.8358 9.19498 19.8452 9.18084C19.8538 9.16794 19.8612 9.15455 19.869 9.14134C19.8766 9.12862 19.8845 9.11621 19.8914 9.10313C19.8987 9.08955 19.9047 9.07559 19.9112 9.06177C19.9176 9.04825 19.9243 9.03492 19.93 9.02109C19.9355 9.00757 19.94 8.99381 19.9449 8.9801C19.9502 8.96529 19.9559 8.95066 19.9604 8.93553C19.9645 8.92183 19.9675 8.90794 19.9709 8.89405C19.9748 8.87868 19.9791 8.86337 19.9822 8.84769C19.9853 8.83171 19.9872 8.81553 19.9895 8.79942C19.9914 8.78566 19.9941 8.77208 19.9954 8.75813C19.9983 8.72825 19.9999 8.69819 19.9999 8.66819C19.9999 8.66776 20 8.66726 20 8.66683C20 8.6664 19.9999 8.66591 19.9999 8.66547C19.9999 8.63541 19.9983 8.60541 19.9954 8.57547C19.9941 8.56171 19.9915 8.54831 19.9896 8.53467C19.9872 8.51838 19.9853 8.50208 19.9822 8.48591C19.9791 8.47035 19.9749 8.45529 19.971 8.44004C19.9675 8.42603 19.9644 8.4119 19.9603 8.39801C19.9558 8.38313 19.9502 8.36875 19.9451 8.35418C19.9401 8.34023 19.9356 8.32622 19.9299 8.31251C19.9243 8.29893 19.9178 8.28591 19.9115 8.27264C19.9049 8.2585 19.8987 8.24424 19.8913 8.23035C19.8846 8.2177 19.8769 8.20566 19.8696 8.19338C19.8616 8.17974 19.8539 8.16597 19.8451 8.1527C19.8361 8.13918 19.8261 8.12653 19.8165 8.1135C19.8082 8.10233 19.8004 8.09079 19.7915 8.07992C19.7732 8.05745 19.7538 8.03591 19.7335 8.01523C19.7325 8.01424 19.7317 8.01313 19.7307 8.01214L16.9718 5.23432C16.7922 5.05352 16.5569 4.96309 16.3215 4.96309C16.0862 4.96315 15.8508 5.05352 15.6712 5.23426C15.3121 5.59586 15.3121 6.18209 15.6712 6.5437L16.8602 7.74097Z" fill="#D93067"/>
<path d="M1.30045 17L12.9493 17C13.4571 17 13.8689 16.5854 13.8689 16.0741L13.8689 12.3704C13.8689 11.859 13.4571 11.4445 12.9493 11.4445C12.4414 11.4445 12.0296 11.859 12.0296 12.3704L12.0296 15.1482L2.2201 15.1482L2.2201 2.18521L12.0296 2.18521L12.0296 4.96304C12.0296 5.47439 12.4414 5.88896 12.9493 5.88896C13.4571 5.88896 13.8689 5.47439 13.8689 4.96304L13.8689 1.25929C13.8689 0.74794 13.4571 0.333374 12.9493 0.333374L1.30045 0.333373C0.792567 0.333373 0.380813 0.747939 0.380813 1.25929L0.380812 16.0741C0.380812 16.5854 0.792565 17 1.30045 17Z" fill="#D93067"/>
</svg>
