<svg width="16" height="16" viewBox="0 0 16 16" fill="none" xmlns="http://www.w3.org/2000/svg">
<path fill-rule="evenodd" clip-rule="evenodd" d="M1.33333 6.66495C1.33333 5.45259 1.74534 4.33491 2.43085 3.43813C3.30221 2.29765 4.61888 1.51396 6.1214 1.36055C6.30023 1.34214 6.48169 1.33337 6.66578 1.33337C7.49944 1.33337 8.28665 1.53061 8.99057 1.87337C10.7683 2.73859 12 4.55845 12 6.66583C12 9.60688 9.60683 12 6.66666 12C5.20183 12 3.87288 11.4066 2.90861 10.4458C2.9051 10.4423 2.90072 10.4405 2.89721 10.4353C2.89107 10.43 2.88669 10.4248 2.88143 10.4186C1.92592 9.45435 1.33333 8.12715 1.33333 6.66495ZM16 14.7774L11.5694 10.3451C11.6616 10.2214 11.7512 10.0943 11.8339 9.96372C12.4303 9.02607 12.7809 7.91609 12.7809 6.72249C12.7809 3.37803 10.0687 0.666626 6.72337 0.666626C4.6638 0.666626 2.84824 1.69641 1.75361 3.26712C1.07021 4.24742 0.666656 5.4376 0.666656 6.72164C0.666656 10.0687 3.37977 12.7792 6.72252 12.7792C8.08334 12.7792 9.33496 12.3262 10.3451 11.5685L14.7774 16L16 14.7774Z" fill="#568CD6"/>
</svg>
