<svg width="23" height="23" viewBox="0 0 23 23" fill="none" xmlns="http://www.w3.org/2000/svg">
<path fill-rule="evenodd" clip-rule="evenodd" d="M1 8.99737C1 7.17883 1.61801 5.5023 2.64629 4.15713C3.95332 2.44642 5.92834 1.27087 8.18212 1.04076C8.45036 1.01315 8.72255 1 8.99868 1C10.2492 1 11.43 1.29586 12.4859 1.80999C15.1525 3.10782 17 5.83761 17 8.99868C17 13.4103 13.4103 17 9 17C6.80276 17 4.80934 16.1098 3.36292 14.6686C3.35766 14.6634 3.35108 14.6607 3.34583 14.6529C3.33662 14.645 3.33005 14.6371 3.32216 14.6279C1.88889 13.1815 1 11.1907 1 8.99737ZM23 21.1661L16.3542 14.5177C16.4924 14.3321 16.6268 14.1414 16.7509 13.9456C17.6454 12.5392 18.1714 10.8742 18.1714 9.0838C18.1714 4.0671 14.103 0 9.08508 0C5.99572 0 3.27237 1.54468 1.63043 3.90073C0.605331 5.37119 0 7.15647 0 9.08252C0 14.103 4.06966 18.1689 9.0838 18.1689C11.125 18.1689 13.0024 17.4893 14.5177 16.3529L21.1661 23L23 21.1661Z" fill="#568CD6"/>
</svg>
