<svg width="24" height="24" viewBox="0 0 24 24" fill="none" xmlns="http://www.w3.org/2000/svg">
<g opacity="0.9">
<path fill-rule="evenodd" clip-rule="evenodd" d="M20.9228 10.4614C21.1949 10.4614 21.5096 10.6642 21.5399 10.9341C21.6212 11.6612 21.6202 12.3954 21.5357 13.1173C21.5023 13.3982 21.249 13.6103 20.9738 13.5879L20.8551 13.5848C20.0064 13.5848 19.2174 14.1076 18.8911 14.8862C18.544 15.7133 18.7608 16.676 19.429 17.2811C19.6385 17.4707 19.6635 17.7907 19.4863 18.0107C19.0298 18.5793 18.5075 19.0958 17.9332 19.5462C17.7121 19.717 17.3985 19.6921 17.2087 19.4856C16.6375 18.8582 15.6212 18.622 14.8311 18.9447C14.0138 19.2793 13.4854 20.1022 13.5176 20.9919C13.527 21.2712 13.3207 21.5109 13.0423 21.5417C12.6911 21.5807 12.3397 21.6 11.9885 21.6C11.6184 21.6 11.2493 21.5787 10.8825 21.5359C10.6021 21.5036 10.3947 21.2576 10.4114 20.9751C10.4624 20.0755 9.94114 19.2381 9.11251 18.8915C8.32139 18.5594 7.29359 18.7945 6.71921 19.4298C6.52854 19.6399 6.20849 19.6649 5.98853 19.4877C5.42772 19.0363 4.91586 18.5193 4.46979 17.9512C4.29669 17.7318 4.32277 17.4165 4.52816 17.2278C5.18483 16.6259 5.40058 15.6722 5.06495 14.8539C4.72826 14.0346 3.92563 13.517 3.08965 13.5384C2.81453 13.5384 2.49027 13.3374 2.46012 13.0663C2.37882 12.3392 2.37982 11.6044 2.46426 10.8831C2.49755 10.6064 2.71437 10.4021 3.01878 10.4118C3.95685 10.4118 4.77627 9.90328 5.10767 9.11417C5.4548 8.28649 5.23905 7.32394 4.57088 6.71886C4.36242 6.52919 4.33634 6.20965 4.51358 5.98919C4.96801 5.42212 5.49131 4.9052 6.06668 4.45378C6.28657 4.2824 6.60241 4.30783 6.79115 4.51472C7.36224 5.1428 8.3829 5.37633 9.16766 5.05579C9.98601 4.7206 10.5135 3.89771 10.4822 3.00752C10.4729 2.7287 10.6793 2.48895 10.9576 2.45823C11.6768 2.37844 12.4002 2.38101 13.1173 2.46395C13.3989 2.49674 13.6053 2.74227 13.5885 3.02466C13.5375 3.92371 14.0587 4.76125 14.8853 5.10894C15.6795 5.44034 16.7074 5.20481 17.2796 4.57108C17.4694 4.36098 17.7904 4.33655 18.0093 4.51214C18.5681 4.95977 19.0798 5.47627 19.5301 6.04806C19.7032 6.26745 19.6782 6.58327 19.4718 6.77194C18.8161 7.37338 18.6004 8.32764 18.9349 9.14589C19.2623 9.94478 20.043 10.4614 20.9228 10.4614ZM8.40002 12C8.40002 13.9852 10.0148 15.6 12.0001 15.6C13.9852 15.6 15.6 13.9852 15.6 12C15.6 10.0149 13.9852 8.40002 12.0001 8.40002C10.0148 8.40002 8.40002 10.0149 8.40002 12Z" fill="#568CD6"/>
</g>
</svg>
