<svg width="30" height="30" viewBox="0 0 30 30" fill="none" xmlns="http://www.w3.org/2000/svg">
<path fill-rule="evenodd" clip-rule="evenodd" d="M28.3841 12.6921C28.7923 12.6921 29.2643 12.9963 29.3099 13.4011C29.4318 14.4918 29.4303 15.5931 29.3035 16.676C29.2534 17.0974 28.8735 17.4155 28.4606 17.3819L28.2825 17.3773C27.0096 17.3773 25.8261 18.1615 25.3366 19.3294C24.8159 20.57 25.1412 22.0141 26.1434 22.9217C26.4577 23.2061 26.4952 23.6862 26.2295 24.0161C25.5446 24.8691 24.7613 25.6438 23.8998 26.3193C23.5682 26.5755 23.0977 26.5381 22.813 26.2285C21.9563 25.2873 20.4317 24.933 19.2466 25.4171C18.0207 25.919 17.2281 27.1533 17.2764 28.4879C17.2904 28.9069 16.9811 29.2665 16.5635 29.3125C16.0366 29.3712 15.5096 29.4001 14.9827 29.4001C14.4276 29.4001 13.874 29.3681 13.3237 29.3039C12.9031 29.2554 12.592 28.8865 12.617 28.4627C12.6935 27.1134 11.9117 25.8572 10.6687 25.3372C9.48205 24.8392 7.94035 25.1918 7.07879 26.1448C6.79278 26.4599 6.3127 26.4974 5.98276 26.2316C5.14156 25.5546 4.37376 24.7791 3.70465 23.9268C3.44501 23.5978 3.48412 23.1248 3.7922 22.8418C4.77721 21.9389 5.10084 20.5083 4.5974 19.2809C4.09236 18.052 2.88842 17.2756 1.63444 17.3077C1.22177 17.3077 0.735371 17.0061 0.69015 16.5996C0.568202 15.5089 0.569702 14.4066 0.696365 13.3247C0.746301 12.9096 1.07153 12.6031 1.52814 12.6178C2.93525 12.6178 4.16437 11.855 4.66148 10.6713C5.18217 9.4298 4.85855 7.98597 3.85628 7.07835C3.54359 6.79385 3.50448 6.31454 3.77034 5.98385C4.45198 5.13324 5.23693 4.35785 6.09999 3.68073C6.42983 3.42366 6.90358 3.46181 7.1867 3.77213C8.04333 4.71426 9.57432 5.06455 10.7515 4.58374C11.979 4.08096 12.7702 2.84662 12.7233 1.51134C12.7093 1.09311 13.0189 0.733487 13.4363 0.687409C14.5152 0.567715 15.6003 0.571573 16.676 0.695982C17.0983 0.745167 17.4079 1.11347 17.3827 1.53706C17.3062 2.88563 18.088 4.14193 19.3279 4.66347C20.5193 5.16057 22.0611 4.80727 22.9194 3.85668C23.204 3.54153 23.6856 3.50489 24.0138 3.76828C24.852 4.43972 25.6197 5.21447 26.2952 6.07215C26.5548 6.40123 26.5172 6.87497 26.2076 7.15797C25.2241 8.06012 24.9006 9.49153 25.4023 10.7189C25.8934 11.9172 27.0645 12.6921 28.3841 12.6921ZM9.60001 15.0001C9.60001 17.9779 12.0222 20.4001 15.0001 20.4001C17.9778 20.4001 20.4 17.9779 20.4 15.0001C20.4 12.0224 17.9778 9.6001 15.0001 9.6001C12.0222 9.6001 9.60001 12.0224 9.60001 15.0001Z" fill="#568CD6"/>
</svg>
