<svg width="36" height="36" viewBox="0 0 36 36" fill="none" xmlns="http://www.w3.org/2000/svg">
<path fill-rule="evenodd" clip-rule="evenodd" d="M36 18C36 8.05888 27.9411 0 18 0C8.05888 0 0 8.05888 0 18C0 22.0078 1.31131 25.7085 3.52625 28.6997C6.94904 26.3105 18.6005 19.72 32.4328 28.7573C34.6733 25.7562 36 22.0331 36 18ZM11.0069 16.25H10.9747C8.24565 16.2331 6.2769 14.0945 6.19414 14.0029L7.30449 12.9951L7.30555 12.9962C7.3551 13.0488 8.95183 14.7434 10.9944 14.75H11.0061C12.2081 14.75 13.3667 14.1574 14.45 12.99L15.5501 14.0095C14.1709 15.4963 12.6424 16.25 11.0069 16.25ZM24.1238 16.2441C24.2044 16.2478 24.285 16.25 24.3648 16.25C25.9878 16.25 27.5567 15.5036 29.0303 14.03L27.9698 12.9695C26.7371 14.2029 25.4693 14.7983 24.2037 14.7463C22.2438 14.6639 20.8495 13.0462 20.8252 13.018L20.825 13.0178L19.6736 13.9802C19.7469 14.0674 21.4908 16.1247 24.1238 16.2441Z" fill="#838487"/>
<path d="M4.46036 29.8535C7.7596 33.6189 12.6004 35.9997 18 35.9997C23.3667 35.9997 28.1817 33.6484 31.4795 29.9229C18.363 21.4288 7.66003 27.5691 4.46036 29.8535Z" fill="#838487"/>
</svg>
