<svg width="26" height="26" viewBox="0 0 26 26" fill="none" xmlns="http://www.w3.org/2000/svg">
<path d="M13.0508 0C5.94669 0 0 5.73975 0 12.9492C0 20.1185 5.91317 26 13.0508 26C20.2683 26 26 20.0455 26 12.9492C26 5.79211 20.2085 0 13.0508 0ZM13.0508 24.4816C6.69459 24.4816 1.51836 19.3054 1.51836 12.9492C1.51836 6.64904 6.69459 1.51836 13.0508 1.51836C19.351 1.51836 24.4816 6.64904 24.4816 12.9492C24.4816 19.4002 19.351 24.4816 13.0508 24.4816Z" fill="#838487"/>
<path d="M13.051 3C7.5723 3 3 7.4426 3 12.949C3 18.4334 7.54832 23 13.051 23C18.5626 23 23 18.4238 23 12.949C23 7.46311 18.5369 3 13.051 3ZM13.051 21.4745C8.4325 21.4745 4.52551 17.5675 4.52551 12.949C4.52551 8.30709 8.35286 4.52551 13.051 4.52551C17.6929 4.52551 21.4745 8.30709 21.4745 12.949C21.4745 17.6471 17.6929 21.4745 13.051 21.4745Z" fill="#838487"/>
<path d="M14.0968 19H11.9104V13.0402H9V11.5502H17V13.0402H14.0968V19ZM17 10.49H9V9H17V10.49Z" fill="#838487"/>
</svg>
