<svg width="25" height="24" viewBox="0 0 25 24" fill="none" xmlns="http://www.w3.org/2000/svg">
<path d="M12.3668 3.3335C7.63009 3.3335 3.71466 7.20303 3.71466 11.9663C3.71466 16.7296 7.63009 20.6668 12.3668 20.6668C17.1036 20.6668 20.9517 16.7296 20.9517 11.9663C20.9517 7.20303 17.1036 3.3335 12.3668 3.3335Z" fill="#FEDB41"/>
<path d="M20.9518 11.9663C20.9518 16.7296 17.1037 20.6668 12.3669 20.6668V3.3335C17.1037 3.3335 20.9518 7.20303 20.9518 11.9663Z" fill="#FFB300"/>
<path d="M12.367 5.36523C8.75116 5.36523 5.73474 8.33083 5.73474 11.9668C5.73474 15.6028 8.75116 18.6361 12.367 18.6361C15.9828 18.6361 18.9318 15.6028 18.9318 11.9668C18.9318 8.33083 15.9828 5.36523 12.367 5.36523Z" fill="#EBA500"/>
<path d="M18.9318 11.9668C18.9318 15.6028 15.9827 18.6361 12.3669 18.6361V5.36523C15.9827 5.36523 18.9318 8.33083 18.9318 11.9668Z" fill="#E09D00"/>
<path d="M13.0128 15.2526H11.6526V11.3574H9.84192V10.3836H14.819V11.3574H13.0128V15.2526ZM14.819 9.6906H9.84192V8.7168H14.819V9.6906Z" fill="#FFED9F"/>
<mask id="mask0" mask-type="alpha" maskUnits="userSpaceOnUse" x="9" y="8" width="6" height="8">
<path d="M13.0128 15.2526H11.6526V11.3574H9.84192V10.3836H14.819V11.3574H13.0128V15.2526ZM14.819 9.6906H9.84192V8.7168H14.819V9.6906Z" fill="#FFFBE7"/>
</mask>
<g mask="url(#mask0)">
<rect x="12.3334" y="7.93896" width="3.90527" height="8.66667" fill="#FFBF27"/>
</g>
</svg>
