<svg width="26" height="26" viewBox="0 0 26 26" fill="none" xmlns="http://www.w3.org/2000/svg">
<path d="M13.0508 0C5.90596 0 0 5.8043 0 12.9492C0 20.0941 5.90596 26 13.0508 26C20.1956 26 26 20.0941 26 12.9492C26 5.8043 20.1956 0 13.0508 0Z" fill="#FEDB41"/>
<path d="M26 12.9492C26 20.0941 20.1956 26 13.0508 26V0C20.1956 0 26 5.8043 26 12.9492Z" fill="#FFB300"/>
<path d="M13.0508 3.04688C7.59677 3.04688 3.04688 7.49526 3.04688 12.9492C3.04688 18.4032 7.59677 22.9531 13.0508 22.9531C18.5048 22.9531 22.9531 18.4032 22.9531 12.9492C22.9531 7.49526 18.5048 3.04688 13.0508 3.04688Z" fill="#EBA500"/>
<path d="M22.9531 12.9492C22.9531 18.4032 18.5048 22.9531 13.0508 22.9531V3.04688C18.5048 3.04688 22.9531 7.49526 22.9531 12.9492Z" fill="#E09D00"/>
<path d="M14.0251 17.8779H11.9734V12.0351H9.24219V10.5744H16.7495V12.0351H14.0251V17.8779ZM16.7495 9.53492H9.24219V8.07422H16.7495V9.53492Z" fill="#FFED9F"/>
<mask id="mask0" mask-type="alpha" maskUnits="userSpaceOnUse" x="9" y="8" width="8" height="10">
<path d="M14.0251 17.8779H11.9734V12.0351H9.24219V10.5744H16.7495V12.0351H14.0251V17.8779ZM16.7495 9.53492H9.24219V8.07422H16.7495V9.53492Z" fill="#FFFBE7"/>
</mask>
<g mask="url(#mask0)">
<rect x="13" y="6.90625" width="5.89062" height="13" fill="#FFBF27"/>
</g>
</svg>
