<svg width="18" height="18" viewBox="0 0 18 18" fill="none" xmlns="http://www.w3.org/2000/svg">
<path d="M8.89462 0.333496C4.15786 0.333496 0.242432 4.20303 0.242432 8.96631C0.242432 13.7296 4.15786 17.6668 8.89462 17.6668C13.6314 17.6668 17.4795 13.7296 17.4795 8.96631C17.4795 4.20303 13.6314 0.333496 8.89462 0.333496Z" fill="#FEDB41"/>
<path d="M17.4796 8.96631C17.4796 13.7296 13.6315 17.6668 8.89471 17.6668V0.333496C13.6315 0.333496 17.4796 4.20303 17.4796 8.96631Z" fill="#FFB300"/>
<path d="M8.89473 2.36523C5.27893 2.36523 2.26251 5.33083 2.26251 8.9668C2.26251 12.6028 5.27893 15.6361 8.89473 15.6361C12.5105 15.6361 15.4596 12.6028 15.4596 8.9668C15.4596 5.33083 12.5105 2.36523 8.89473 2.36523Z" fill="#EBA500"/>
<path d="M15.4596 8.9668C15.4596 12.6028 12.5105 15.6361 8.89471 15.6361V2.36523C12.5105 2.36523 15.4596 5.33083 15.4596 8.9668Z" fill="#E09D00"/>
<path d="M9.54061 12.2526H8.18036V8.35739H6.36969V7.38359H11.3468V8.35739H9.54061V12.2526ZM11.3468 6.6906H6.36969V5.7168H11.3468V6.6906Z" fill="#FFED9F"/>
<mask id="mask0" mask-type="alpha" maskUnits="userSpaceOnUse" x="6" y="5" width="6" height="8">
<path d="M9.54061 12.2526H8.18036V8.35739H6.36969V7.38359H11.3468V8.35739H9.54061V12.2526ZM11.3468 6.6906H6.36969V5.7168H11.3468V6.6906Z" fill="#FFFBE7"/>
</mask>
<g mask="url(#mask0)">
<rect x="8.86115" y="4.93896" width="3.90527" height="8.66667" fill="#FFBF27"/>
</g>
</svg>
