<svg width="18" height="18" viewBox="0 0 18 18" fill="none" xmlns="http://www.w3.org/2000/svg">
<path d="M9.0339 0.333374C4.29783 0.333374 0.333374 4.15988 0.333374 8.96619C0.333374 13.7457 4.27549 17.6667 9.0339 17.6667C13.8456 17.6667 17.6667 13.6971 17.6667 8.96619C17.6667 4.19478 13.8057 0.333374 9.0339 0.333374ZM9.0339 16.6545C4.79644 16.6545 1.34561 13.2036 1.34561 8.96619C1.34561 4.76607 4.79644 1.34561 9.0339 1.34561C13.234 1.34561 16.6545 4.76607 16.6545 8.96619C16.6545 13.2669 13.234 16.6545 9.0339 16.6545Z" fill="#838487"/>
<path d="M9.03418 2.3335C5.38169 2.3335 2.3335 5.29523 2.3335 8.96615C2.3335 12.6224 5.36571 15.6668 9.03418 15.6668C12.7085 15.6668 15.6668 12.616 15.6668 8.96615C15.6668 5.3089 12.6914 2.3335 9.03418 2.3335ZM9.03418 14.6498C5.95516 14.6498 3.3505 12.0452 3.3505 8.96615C3.3505 5.87156 5.90207 3.3505 9.03418 3.3505C12.1288 3.3505 14.6498 5.87156 14.6498 8.96615C14.6498 12.0983 12.1288 14.6498 9.03418 14.6498Z" fill="#838487"/>
<path d="M9.73126 13H8.27365V9.02684H6.33337V8.03354H11.6667V9.02684H9.73126V13ZM11.6667 7.32668H6.33337V6.33337H11.6667V7.32668Z" fill="#838487"/>
</svg>
